# xmcd
#
# Track frame offsets: 
#        150
#        14915
#        30123
#        51780
#        74430
#        95701
#        117090
#        133471
#        155364
#        174900
#        195912
#        210985
#        226773
#        247167
#        262444
#        278253
#
# Disc length: 3967 seconds
#
# Revision: 1
# Processed by: cddbd v1.5.2PL0 Copyright (c) Steve Scherf et al.
# Submitted via: ExactAudioCopy v0.95a5
#
DISCID=dd0f7d10
DTITLE=黑鸭子 and 雨天 - 四度空间
DYEAR=2006
DGENRE=Pop
TTITLE0=遇上你是我的缘 It is my fate to meet you
TTITLE1=我说我爱你 I say that I love you
TTITLE2=让泪化做相思雨 Let tear become the yearning rain
TTITLE3=蓝眼泪 Blue tear
TTITLE4=只有分离Only separate
TTITLE5=香水有毒 Perfume poison
TTITLE6=突然的自我Unexpected oneself
TTITLE7=风中的遗憾 Regret in the wind
TTITLE8=那一刻 That moment
TTITLE9=那一夜 That night
TTITLE10=我和草原有个约定Appointment with the grassland
TTITLE11=男人的好 Man’s good
TTITLE12=原谅 Ever was most beautiful
TTITLE13=I knew I love you（我知道我爱你）
TTITLE14=阿弥陀佛在心间 Amitabha in the heart
TTITLE15=曾经最美Ever was most beautiful
EXTD=
EXTT0=
EXTT1=
EXTT2=
EXTT3=
EXTT4=
EXTT5=
EXTT6=
EXTT7=
EXTT8=
EXTT9=
EXTT10=
EXTT11=
EXTT12=
EXTT13=
EXTT14=
EXTT15=
PLAYORDER=
